# Blender v2.76 (sub 0) OBJ File: 'bullet.blend'
# www.blender.org
o Cube
v 0.000000 -0.095046 -0.109977
v 0.109977 -0.095046 0.000000
v 0.000000 -0.095046 0.109977
v -0.109977 -0.095046 0.000000
v 0.000000 0.060484 -0.109977
v 0.109977 0.060484 0.000000
v -0.000000 0.060484 0.109977
v -0.109977 0.060484 0.000000
v 0.000000 0.138249 0.000000
vt 1.000000 0.343146
vt 0.666667 0.343146
vt 0.666667 0.000000
vt 0.166667 0.514719
vt 0.000000 0.343146
vt 0.333333 0.343146
vt 0.000000 0.000000
vt 0.333333 0.757359
vt 0.666667 0.757359
vt 0.666667 1.000000
vt 0.333333 0.514718
vt 0.333333 0.171573
vt 0.666667 0.171573
vt 0.333333 1.000000
vt 0.000000 1.000000
vt 0.000000 0.757359
vt 0.500000 0.000000
vt 0.500000 0.514719
vt 1.000000 0.000000
vt 0.333333 0.000000
vt 0.666667 0.514718
vn 0.000000 -1.000000 0.000000
vn 0.500000 0.707100 -0.500000
vn 0.707100 0.000000 -0.707100
vn 0.707100 -0.000000 0.707100
vn -0.707100 -0.000000 0.707100
vn -0.707100 0.000000 -0.707100
vn -0.500000 0.707100 -0.500000
vn -0.500000 0.707100 0.500000
vn 0.500000 0.707100 0.500000
s off
f 2/1/1 3/2/1 4/3/1
f 9/4/2 6/5/2 5/6/2
f 5/6/3 6/5/3 2/7/3
f 6/8/4 7/9/4 3/10/4
f 3/11/5 7/12/5 8/13/5
f 1/14/6 4/15/6 8/16/6
f 5/8/7 8/16/7 9/4/7
f 8/13/8 7/12/8 9/17/8
f 7/9/9 6/8/9 9/18/9
f 1/19/1 2/1/1 4/3/1
f 1/20/3 5/6/3 2/7/3
f 2/14/4 6/8/4 3/10/4
f 4/21/5 3/11/5 8/13/5
f 5/8/6 1/14/6 8/16/6
